<?xml version="1.0" encoding="UTF-8"?>
<svg version="1.1" xmlns="http://www.w3.org/2000/svg" width="50" height="50">
<path d="M0 0 C7.30429222 7.11207401 7.30429222 7.11207401 7.47265625 12.3515625 C7.46105469 13.53492188 7.44945312 14.71828125 7.4375 15.9375 C7.42847656 17.12601563 7.41945312 18.31453125 7.41015625 19.5390625 C7.39855469 20.45429688 7.38695312 21.36953125 7.375 22.3125 C8.035 22.3125 8.695 22.3125 9.375 22.3125 C9.86730769 29.57403846 9.86730769 29.57403846 7.625 32.9375 C6.8825 33.72125 6.14 34.505 5.375 35.3125 C4.7975 36.3025 4.22 37.2925 3.625 38.3125 C0.40128007 42.61079324 -3.34107082 45.52333872 -8.640625 46.796875 C-13.42449288 47.13588926 -16.89924873 45.62551558 -20.8046875 42.9453125 C-23.33546128 40.67521928 -24.91525399 38.15657744 -26.51953125 35.1796875 C-27.54431738 33.24079159 -27.54431738 33.24079159 -29.25 31.83203125 C-31.7377008 29.08283917 -30.7992476 25.85553453 -30.625 22.3125 C-29.965 22.3125 -29.305 22.3125 -28.625 22.3125 C-28.65980469 21.08273438 -28.65980469 21.08273438 -28.6953125 19.828125 C-28.71335937 18.75046875 -28.73140625 17.6728125 -28.75 16.5625 C-28.77320313 15.49515625 -28.79640625 14.4278125 -28.8203125 13.328125 C-28.62847734 10.36619011 -28.27914136 8.74776367 -26.625 6.3125 C-24.5 5.5625 -24.5 5.5625 -22.625 5.3125 C-22.5425 4.52875 -22.46 3.745 -22.375 2.9375 C-21.625 0.3125 -21.625 0.3125 -20.0078125 -0.828125 C-13.77124816 -3.07737771 -5.9395906 -2.76498183 0 0 Z M-19.625 9.3125 C-19.625 10.6325 -19.625 11.9525 -19.625 13.3125 C-18.635 12.9825 -17.645 12.6525 -16.625 12.3125 C-16.955 11.3225 -17.285 10.3325 -17.625 9.3125 C-18.285 9.3125 -18.945 9.3125 -19.625 9.3125 Z " fill="#000000" transform="translate(35.625,2.6875)"/>
<path d="M0 0 C3.33537489 1.11179163 4.63707344 2.47411298 7 5 C5.88820837 8.33537489 4.52588702 9.63707344 2 12 C-1.33537489 10.88820837 -2.63707344 9.52588702 -5 7 C-3.88820837 3.66462511 -2.52588702 2.36292656 0 0 Z " fill="#000000" transform="translate(5,0)"/>
</svg>
